PathFileType	4	(X/Y/Z)	C:\Users\WrightLab\Desktop\Jo\P1_boxCal26.trc
DataRate	CameraRate	NumFrames	NumMarkers	Units	OrigDataRate	OrigDataStartFrame	OrigNumFrames
100.00	100.00	       13	19	mm	100.00	333	       664
Frame#	Time	Headset_Front			Headset_Back			Headset_Left			Headset_Right			Left_Shoulder			Right_Shoulder			Sternum			C7			Left Elbow			Right Elbow			Left Wrist			Right Wrist			Left ASIS			Right ASIS			S2			Left Knee			Right Knee			Left Ankle			Right Ankle			
		X1	Y1	Z1	X2	Y2	Z2	X3	Y3	Z3	X4	Y4	Z4	X5	Y5	Z5	X6	Y6	Z6	X7	Y7	Z7	X8	Y8	Z8	X9	Y9	Z9	X10	Y10	Z10	X11	Y11	Z11	X12	Y12	Z12	X13	Y13	Z13	X14	Y14	Z14	X15	Y15	Z15	X16	Y16	Z16	X17	Y17	Z17	X18	Y18	Z18	X19	Y19	Z19	

333	3.320	-393.94638	1268.19885	186.17039	-593.47028	1488.09216	260.07614	-563.51526	1377.96643	135.38588	-422.08417	1350.58936	309.19690	-656.38531	1236.02930	116.49902	-567.27747	1266.96533	472.95853	-537.88525	1112.10596	309.08752	-732.78204	1298.75696	306.50818	-563.89063	946.42993	52.06955	-662.94745	1039.31079	623.81140	-375.80414	828.75928	-2.61097	-624.32794	787.93530	664.95905	-606.81323	838.01093	232.00815	-567.50275	852.75800	428.84540	-884.89240	938.01862	407.80081	-769.78094	455.39325	176.53711	-598.41394	486.72775	537.00604	-785.14807	86.48399	190.31953				
334	3.330	-391.60120	1266.40991	182.87805	-590.88153	1487.31396	255.95837	-560.81641	1375.81140	131.90541	-420.98529	1350.03137	306.69196	-654.02948	1235.83325	112.50671	-565.87726	1267.24097	470.64673	-537.27783	1111.89441	304.09918	-730.30194	1298.82751	302.65979	-562.68060	945.63556	49.21128	-661.83984	1038.91638	619.26227	-373.13989	827.92798	-4.03030	-626.00208	788.27094	663.11847	-606.30170	836.67584	229.01877	-569.38715	851.54919	426.14005	-884.93396	938.97852	403.91736	-770.21411	455.16052	174.76352	-599.91711	487.26880	535.47534	-785.32861	85.39485	191.22894				
335	3.340	-389.02087	1264.42285	180.42564	-587.93445	1486.29785	251.85432	-558.17194	1375.28687	128.41464	-418.58347	1347.81897	302.94601	-652.38623	1235.43311	108.72487	-563.99500	1266.19507	466.30728	-536.23047	1109.02771	299.84479	-728.56616	1298.57959	299.20709	-561.71582	944.85742	46.08590	-661.72540	1039.37170	616.05652	-371.47006	827.88696	-6.14410	-627.68420	788.91901	661.66754	-605.52124	836.24719	226.13855	-569.81616	851.28754	422.75732	-884.91949	939.86719	400.55029	-771.45819	455.59375	172.28011	-601.69397	487.20648	534.58466	-784.97668	87.52128	186.61748				
336	3.350	-387.51230	1262.25012	178.21002	-585.03442	1485.42566	248.00096	-554.90802	1373.00757	124.87669	-416.08197	1346.55688	299.87317	-650.61011	1235.05835	106.25060	-562.69806	1266.93701	463.75830	-535.20563	1108.92908	300.64423	-726.76038	1298.95923	295.66675	-560.93268	944.41388	42.42286	-662.39923	1040.66394	614.46240	-369.79346	826.97815	-7.56033	-628.87665	789.07965	660.16718	-605.64417	834.77899	223.37213	-569.29901	850.98010	420.98334	-885.04468	940.60406	397.54700	-771.85315	455.12796	171.36195	-603.30841	487.03674	532.62115	-785.02100	87.37928	186.53355				
337	3.360	-385.56110	1259.34509	176.33232	-582.16113	1484.22986	243.90070	-552.15100	1371.32642	121.77788	-414.57361	1345.12622	297.26874	-649.26270	1234.90503	102.77005	-560.85242	1265.42529	460.57663	-534.57050	1109.20227	287.79333	-725.27545	1299.01746	292.65823	-559.22876	944.12897	40.33326	-662.14417	1039.60779	611.32758	-367.55270	827.08582	-9.68344	-630.18542	789.81287	657.72229	-605.11194	834.21631	220.24536	-571.14185	849.62347	417.88254	-884.51794	941.20105	394.36118	-772.07324	455.11191	170.73721	-603.84131	487.32672	531.50836	-785.37750	86.15346	187.27011				
338	3.370	-383.65662	1257.68079	174.17245	-579.04272	1483.51111	239.77170	-549.08752	1370.41064	118.28754	-411.63089	1343.52734	294.68710	-647.94031	1234.56677	99.17602	-559.27643	1264.26685	456.40332	-533.16107	1107.57898	293.30588	-723.44116	1299.09692	289.63916	-558.15259	943.99371	37.24960	-661.04211	1039.87708	608.23224	-365.75955	826.63947	-10.78196	-631.38098	790.07184	656.13348	-604.84882	833.71069	216.80779	-571.36987	849.21368	416.05066	-884.74121	942.16650	392.10321	-772.32727	455.27106	169.82014	-603.88806	487.83185	530.15741	-785.34619	86.07343	187.02063				
339	3.380	-381.71573	1255.43237	172.67035	-576.17004	1482.63391	236.51012	-546.65692	1368.37524	115.52903	-410.66589	1342.12036	292.47607	-646.25281	1233.97729	97.81147	-557.88086	1263.54346	453.26074	-532.61115	1106.89392	288.30139	-721.76654	1298.65002	286.80414	-557.22180	944.00800	34.02280	-660.16614	1040.60754	605.86102	-364.39258	826.36401	-12.74807	-631.48755	789.71545	653.93903	-605.02386	833.27039	212.82352	-571.47754	848.90955	412.53455	-884.41418	942.62360	389.09659	-772.91492	455.66245	168.26102	-604.45398	487.57684	529.06635	-785.34290	85.98893	186.86440				
340	3.390	-380.65976	1252.27722	170.34479	-573.09497	1481.84570	232.86337	-544.07153	1366.58777	112.61659	-408.94730	1339.86401	289.69141	-645.57861	1234.12781	95.19764	-556.68781	1264.09155	451.42099	-532.38666	1106.11084	286.76187	-720.41156	1299.13794	284.25830	-556.40741	943.65643	32.97259	-659.62451	1039.76453	603.24316	-362.84045	826.79181	-14.52754	-631.52533	789.54028	651.43225	-605.02020	832.62061	208.18182	-570.63727	848.04272	409.84363	-883.95471	943.19989	386.83591	-773.25317	455.36453	167.86465	-605.09320	487.33322	526.85376	-785.37769	85.88519	186.81256				
341	3.400	-379.53027	1249.70483	168.61169	-570.18494	1481.32849	229.31335	-542.00201	1366.11365	108.75661	-407.65060	1337.16064	287.54239	-645.26569	1234.50378	92.73967	-554.94763	1263.39893	449.04495	-531.42572	1106.39111	280.53207	-719.41107	1298.92773	282.06409	-555.22961	943.97742	29.99779	-658.49536	1040.31567	600.75183	-361.74124	826.97040	-16.32207	-630.89093	789.55859	649.23236	-605.49780	832.66864	204.29987	-570.93982	848.05170	407.25146	-883.71429	944.10803	384.56586	-773.53687	454.88174	167.62498	-606.04504	486.62576	526.14777	-785.65558	84.95636	186.67345				
342	3.410	-378.87848	1246.44604	167.41925	-566.99792	1480.45166	225.97346	-539.10681	1364.19788	105.74958	-406.07202	1335.88367	285.52853	-644.15448	1233.81592	90.26261	-553.53790	1262.47974	445.99323	-530.82758	1105.55493	279.20782	-717.88849	1299.24280	279.62088	-554.94812	943.94659	27.12865	-657.20343	1040.77466	598.74487	-360.79630	827.18188	-18.37459	-630.34338	789.49933	647.05963	-605.84088	832.13562	202.53308	-570.78851	847.81561	404.07916	-883.54395	944.33472	382.73431	-774.54077	454.96527	165.46928	-606.27234	486.68808	525.03955	-785.63306	84.88403	186.47012				
343	3.420	-377.96320	1244.20581	165.69363	-564.06708	1479.82898	222.93437	-537.15259	1362.42517	103.46434	-405.11212	1333.47729	283.08682	-643.09607	1233.89063	87.73357	-552.01392	1262.17847	443.82379	-529.61206	1104.79565	277.04526	-716.36237	1299.03833	277.29431	-554.21051	943.93701	25.57584	-656.54712	1040.16431	596.21832	-358.92230	827.36316	-19.72704	-629.35522	789.27020	644.48029	-606.00836	832.13086	199.94115	-569.61462	846.68030	401.47702	-883.30389	944.67804	380.91156	-774.99109	454.81125	164.31328	-606.83228	486.28500	523.93958	-785.78461	84.14828	186.78511				
344	3.430	-377.24310	1241.23206	164.24380	-561.35101	1478.76245	219.73160	-534.70697	1361.34204	101.49590	-403.83786	1331.48560	280.85367	-642.86707	1233.86035	85.74946	-550.55988	1261.81165	441.08264	-529.12280	1104.01465	274.84772	-715.50781	1298.88428	275.39880	-553.61780	944.10956	22.54609	-654.29993	1040.02466	593.11511	-358.18536	827.58972	-21.20222	-628.67438	789.02521	642.27246	-606.38287	831.74731	197.46243	-569.53064	846.89386	398.92465	-882.81122	945.14587	379.02875	-774.96698	454.68744	163.98273	-607.42346	486.47571	523.10089	-785.69373	84.14459	186.45239				
345	3.440	-376.10590	1238.93103	162.38416	-558.60718	1478.27039	216.71721	-532.86914	1359.46509	99.12622	-402.63092	1329.63843	279.32248	-642.51874	1233.53809	83.85154	-548.90717	1261.08240	438.22891	-528.90186	1102.82129	271.70615	-714.33484	1298.98425	273.66962	-553.84979	944.42877	20.75805	-654.38599	1040.83704	592.62268	-357.11093	827.69794	-22.52995	-627.14648	789.05811	639.71149	-606.78455	831.47595	195.36266	-570.05530	846.49152	396.65256	-882.46521	945.54810	377.21561	-775.04462	454.62015	162.32819	-607.27698	486.98184	521.82489	-785.61792	84.15716	186.20125				
